<svg width="29.000000" height="29.000000" viewBox="0 0 29 29" fill="none" xmlns="http://www.w3.org/2000/svg" xmlns:xlink="http://www.w3.org/1999/xlink">
	<desc>
			Created with Pixso.
	</desc>
	<defs>
		<clipPath id="clip6_336">
			<rect id="dashicons-cloud" width="29.000000" height="29.000000" fill="white" fill-opacity="0"/>
		</clipPath>
	</defs>
	<rect id="dashicons-cloud" width="29.000000" height="29.000000" fill="#FFFFFF" fill-opacity="0"/>
	<g clip-path="url(#clip6_336)">
		<path id="Vector" d="M21.605 13.05C21.605 12.615 21.75 12.18 21.75 11.6C21.75 8.40997 19.14 5.79999 15.95 5.79999C13.63 5.79999 11.745 7.10498 10.73 8.98999C10.44 8.845 9.85999 8.69998 9.42499 8.69998C7.39502 8.69998 5.79999 10.295 5.79999 12.325C5.79999 12.615 5.79999 12.905 5.94501 13.05C3.33502 13.485 1.45001 15.515 1.45001 18.125C1.45001 20.88 3.77002 23.2 6.52502 23.2L21.025 23.2C23.78 23.2 26.1 20.88 26.1 18.125C26.1 15.515 24.215 13.34 21.605 13.05Z" fill="#FFFFFF" fill-opacity="1.000000" fill-rule="nonzero"/>
	</g>
</svg>
