<svg width="47.000000" height="54.000000" viewBox="0 0 47 54" fill="none" xmlns="http://www.w3.org/2000/svg" xmlns:xlink="http://www.w3.org/1999/xlink">
	<desc>
			Created with Pixso.
	</desc>
	<defs>
		<clipPath id="clip6_9">
			<rect id="iwwa-file-csv" width="47.000000" height="54.000000" fill="white" fill-opacity="0"/>
		</clipPath>
	</defs>
	<rect id="iwwa-file-csv" width="47.000000" height="54.000000" fill="#FFFFFF" fill-opacity="0"/>
	<g clip-path="url(#clip6_9)">
		<path id="Vector" d="M44.0258 18.9597L42.7512 18.9597L42.7512 12.8181C42.7502 12.7792 42.7464 12.7402 42.7399 12.7018C42.7417 12.4551 42.6535 12.2161 42.4918 12.0295L32.2608 0.356689L32.2533 0.349243C32.192 0.283081 32.1225 0.225098 32.0465 0.176514L31.9788 0.135132C31.9138 0.0991211 31.8451 0.0701904 31.7739 0.0488281L31.7175 0.0300293C31.6394 0.0106201 31.5592 0.000488281 31.4787 0L6.32996 0C5.18127 0 4.24881 0.933105 4.24881 2.07849L4.24881 18.9578L2.97415 18.9578C1.33105 18.9578 0 20.2871 0 21.9281L0 37.3767C0 39.0159 1.33292 40.347 2.97415 40.347L4.24881 40.347L4.24881 50.9215C4.24881 52.0669 5.18127 53 6.32996 53L40.67 53C41.8168 53 42.7512 52.0669 42.7512 50.9215L42.7512 40.347L44.0258 40.347C45.6671 40.347 47 39.0177 47 37.3767L47 21.9281C47 20.2891 45.6689 18.9597 44.0258 18.9597ZM6.32996 2.07849L30.4372 2.07849L30.4372 12.713C30.4372 13.2876 30.9034 13.7513 31.4787 13.7513L40.6719 13.7513L40.6719 18.9578L6.32996 18.9578L6.32996 2.07849ZM21.9001 30.5574C19.3734 29.6562 17.7058 28.2593 17.7058 26.0531C17.7058 23.464 19.8942 21.5056 23.4568 21.5056C25.1939 21.5056 26.4328 21.8436 27.3352 22.2699L26.5682 25.0167C25.5851 24.5386 24.5051 24.2925 23.4117 24.2976C21.9227 24.2976 21.2008 24.9941 21.2008 25.7603C21.2008 26.729 22.0336 27.1553 24.0189 27.8988C26.7035 28.8901 27.9424 30.2852 27.9424 32.4257C27.9424 34.9716 26.0042 37.1327 21.8324 37.1327C20.0953 37.1327 18.3826 36.6595 17.5254 36.1864L18.2247 33.3719C19.4052 33.9739 20.7083 34.2976 22.0336 34.3182C23.6128 34.3182 24.4475 33.663 24.4475 32.6735C24.4475 31.7272 23.7275 31.1882 21.9001 30.5574ZM3.99124 29.521C3.99124 24.3633 7.68921 21.5038 12.2877 21.5038C14.0699 21.5038 15.4216 21.8624 16.0308 22.1572L15.3088 24.8816C14.3956 24.4985 13.4134 24.3069 12.423 24.3182C9.71771 24.3182 7.59897 25.9612 7.59897 29.3389C7.59897 32.3561 9.40189 34.2712 12.4456 34.2712C13.5059 34.2712 14.6339 34.0703 15.3314 33.7756L15.8296 36.4774C15.2205 36.7684 13.7766 37.1307 11.9512 37.1307C6.69656 37.1327 3.99124 33.8451 3.99124 29.521ZM40.67 50.3621L6.32996 50.3621L6.32996 40.349L40.67 40.349L40.67 50.3621ZM37.8914 36.9073L33.8776 36.9073L29.0084 21.7291L32.774 21.7291L34.6221 28.1486C35.1391 29.9717 35.6129 31.684 35.9738 33.5747L36.0415 33.5747C36.4259 31.7704 36.8844 29.9828 37.4158 28.2161L39.3559 21.731L43.0069 21.731L37.8914 36.9073Z" fill="#ED4C5C" fill-opacity="1.000000" fill-rule="nonzero"/>
	</g>
</svg>
