<svg width="32.000000" height="32.000000" viewBox="0 0 32 32" fill="none" xmlns="http://www.w3.org/2000/svg" xmlns:xlink="http://www.w3.org/1999/xlink">
	<desc>
			Created with Pixso.
	</desc>
	<defs>
		<clipPath id="clip6_351">
			<rect id="ion-logo-apple-appstore" width="32.000000" height="32.000000" fill="white" fill-opacity="0"/>
		</clipPath>
	</defs>
	<rect id="ion-logo-apple-appstore" width="32.000000" height="32.000000" fill="#FFFFFF" fill-opacity="0"/>
	<g clip-path="url(#clip6_351)">
		<path id="Vector" d="M16 2C8.26624 2 2 8.26636 2 16C2 23.7336 8.26624 30 16 30C23.7338 30 30 23.7336 30 16C30 8.26636 23.7338 2 16 2ZM10.6875 22.1182C10.6016 22.2646 10.4786 22.386 10.3309 22.47C10.1833 22.554 10.0161 22.5974 9.84625 22.5962C9.67313 22.5977 9.50302 22.551 9.35501 22.4612C9.24478 22.3975 9.14825 22.3123 9.07098 22.2112C8.99371 22.1099 8.93716 21.9944 8.90466 21.8711C8.87213 21.748 8.86426 21.6196 8.88147 21.4934C8.89871 21.3672 8.94067 21.2456 9.005 21.1357L9.96063 19.5469C10.0089 19.4648 10.0778 19.397 10.1605 19.3499C10.2432 19.3027 10.3367 19.2778 10.4319 19.2781L10.5731 19.2781C11.2662 19.2781 11.7513 19.6951 11.8925 20.0986L10.6875 22.1182ZM18.7781 18.9932L12.52 19L8.36063 19C8.22977 19.0005 8.10016 18.9746 7.97964 18.9236C7.85916 18.8723 7.75027 18.7974 7.65964 18.7031C7.56897 18.6086 7.49844 18.4968 7.45233 18.3743C7.40619 18.252 7.38541 18.1213 7.39124 17.9907C7.41125 17.4656 7.86938 17.0681 8.39124 17.0681L11.4062 17.0681L14.9806 10.9836L13.8231 9.01196C13.5625 8.5625 13.6781 7.96997 14.125 7.6875C14.2352 7.61621 14.3586 7.56812 14.4879 7.54565C14.6172 7.52344 14.7497 7.52734 14.8773 7.55762C15.005 7.58789 15.1253 7.64355 15.2309 7.72144C15.3365 7.79907 15.4253 7.89771 15.4919 8.01074L16.1106 9.06738L16.1175 9.06738L16.7369 8.01074C16.8036 7.89819 16.8922 7.80029 16.9975 7.7229C17.1028 7.64526 17.2227 7.58984 17.3499 7.55981C17.4771 7.52954 17.609 7.52539 17.7379 7.54736C17.8668 7.56934 17.9899 7.61694 18.1 7.6875C18.5444 7.96997 18.6588 8.5625 18.3962 9.01367L17.2387 10.9856L16.1137 12.9038L13.6706 17.0701L13.6706 17.0769L17.2712 17.0769C17.7225 17.0769 18.2881 17.3193 18.5169 17.7095L18.5369 17.75C18.7387 18.093 18.8531 18.3289 18.8531 18.6719C18.8498 18.7832 18.825 18.8931 18.78 18.9951L18.7781 18.9932ZM23.6375 19L21.9431 19L21.9431 19.0068L23.1819 21.1138C23.3151 21.3357 23.3559 21.6011 23.2954 21.8525C23.235 22.1042 23.0782 22.3223 22.8588 22.4595C22.7066 22.552 22.5319 22.6013 22.3538 22.6013C22.1844 22.6011 22.0179 22.5574 21.8705 22.4739C21.7231 22.3904 21.5997 22.2703 21.5125 22.125L19.6819 19.0088L18.5444 17.0713L17.0769 14.5625C16.8643 14.2043 16.7488 13.7969 16.7417 13.3804C16.7345 12.9639 16.8361 12.5527 17.0363 12.1875C17.3262 11.6755 17.5481 11.5413 17.5481 11.5413L20.8125 17.0625L23.6194 17.0625C24.1444 17.0625 24.595 17.4663 24.6194 17.9844C24.6244 18.1162 24.6028 18.2476 24.5558 18.3706C24.5088 18.4939 24.4374 18.6062 24.3459 18.7012C24.2543 18.7959 24.1445 18.8713 24.0231 18.9226C23.9017 18.9741 23.7712 19.0002 23.6394 19L23.6375 19Z" fill="#FFFFFF" fill-opacity="1.000000" fill-rule="nonzero"/>
	</g>
</svg>
