<svg width="47.824890" height="54.001953" viewBox="0 0 47.8249 54.002" fill="none" xmlns="http://www.w3.org/2000/svg" xmlns:xlink="http://www.w3.org/1999/xlink">
	<desc>
			Created with Pixso.
	</desc>
	<defs/>
	<path id="Vector" d="M12.6354 27.6696C12.6354 26.2157 11.6253 25.3472 9.84433 25.3472C9.11739 25.3472 8.62575 25.418 8.36749 25.4868L8.36749 30.1565C8.67357 30.2253 9.04852 30.2501 9.56311 30.2501C11.4627 30.2501 12.6354 29.288 12.6354 27.6696Z" fill="#ED4C5C" fill-opacity="1.000000" fill-rule="nonzero"/>
	<path id="Vector" d="M23.6657 25.3931C22.868 25.3931 22.3515 25.4639 22.0454 25.5347L22.0454 35.8801C22.3515 35.9509 22.8431 35.9509 23.2888 35.9509C26.5257 35.9739 28.6376 34.1909 28.6376 30.4147C28.6625 27.1301 26.738 25.3931 23.6657 25.3931Z" fill="#ED4C5C" fill-opacity="1.000000" fill-rule="nonzero"/>
	<path id="Vector" d="M44.7985 19.3156L43.5015 19.3156L43.5015 13.0581C43.5004 13.0183 43.4966 12.9788 43.49 12.9395C43.4921 12.6879 43.4031 12.4438 43.2394 12.2527L32.827 0.361572L32.8194 0.353882C32.6871 0.210449 32.5186 0.105347 32.3315 0.0496826L32.2741 0.0306396C32.1947 0.0107422 32.1131 0.000488281 32.0312 0L6.44106 0C5.27222 0 4.32337 0.950806 4.32337 2.11768L4.32337 19.3156L3.02636 19.3156C1.3544 19.3156 0 20.6699 0 22.3419L0 38.082C0 39.7521 1.35632 41.1084 3.02636 41.1084L4.32337 41.1084L4.32337 51.8843C4.32337 53.0511 5.27222 54.002 6.44106 54.002L41.3838 54.002C42.5508 54.002 43.5015 53.0511 43.5015 51.8843L43.5015 41.1084L44.7985 41.1084C46.4705 41.1084 47.8249 39.7521 47.8249 38.082L47.8249 22.3419C47.8249 20.6699 46.4686 19.3156 44.7985 19.3156ZM6.44106 2.11768L30.9714 2.11768L30.9714 12.9529C30.9714 13.5382 31.4458 14.0107 32.0312 14.0107L41.3857 14.0107L41.3857 19.3156L6.44106 19.3156L6.44106 2.11768ZM32.4387 30.2961C32.4387 33.3225 31.3368 35.4115 29.8083 36.7008C28.144 38.0839 25.6112 38.7419 22.514 38.7419C20.6604 38.7419 19.348 38.6234 18.4547 38.5085L18.4547 22.9769C19.7689 22.7666 21.481 22.6499 23.2888 22.6499C26.2903 22.6499 28.2377 23.1893 29.7624 24.339C31.4056 25.5576 32.4387 27.505 32.4387 30.2961ZM4.82266 38.5793L4.82266 22.9769C5.92455 22.7896 7.47408 22.6499 9.65489 22.6499C11.8606 22.6499 13.4331 23.0726 14.4871 23.9163C15.4953 24.714 16.1744 26.0282 16.1744 27.5758C16.1744 29.1254 15.6598 30.4376 14.7205 31.3291C13.5 32.4789 11.6941 32.9954 9.5822 32.9954C9.11351 32.9954 8.69073 32.9724 8.36362 32.9246L8.36362 38.5793L4.82266 38.5793ZM41.3838 51.3103L6.44106 51.3103L6.44106 41.1084L41.3838 41.1084L41.3838 51.3103ZM44.4523 25.6992L38.3747 25.6992L38.3747 29.3129L44.0525 29.3129L44.0525 32.2225L38.3747 32.2225L38.3747 38.5793L34.7878 38.5793L34.7878 22.7666L44.4523 22.7666L44.4523 25.6992Z" fill="#ED4C5C" fill-opacity="1.000000" fill-rule="nonzero"/>
</svg>
