<svg width="66.000000" height="66.000000" viewBox="0 0 66 66" fill="none" xmlns="http://www.w3.org/2000/svg" xmlns:xlink="http://www.w3.org/1999/xlink">
	<desc>
			Created with Pixso.
	</desc>
	<defs>
		<clipPath id="clip6_16">
			<rect id="ant-design:security-scan-outline" width="66.000000" height="66.000000" fill="white" fill-opacity="0"/>
		</clipPath>
	</defs>
	<rect id="ant-design:security-scan-outline" width="66.000000" height="66.000000" fill="#FFFFFF" fill-opacity="0"/>
	<g clip-path="url(#clip6_16)">
		<path id="Vector" d="M55.8744 10.9506L33.9732 3.48694C33.709 3.39673 33.3545 3.35156 33 3.35156C32.6455 3.35156 32.291 3.39673 32.0268 3.48694L10.1256 10.9506C9.59062 11.1311 9.15234 11.7498 9.15234 12.317L9.15234 43.4092C9.15234 43.9763 9.51973 44.724 9.96445 45.0785L32.1814 62.3906C32.407 62.5647 32.6971 62.6549 32.9936 62.6549C33.29 62.6549 33.5865 62.5647 33.8057 62.3906L56.0227 45.0785C56.4674 44.7305 56.8348 43.9828 56.8348 43.4092L56.8348 12.317C56.8477 11.7498 56.4094 11.1375 55.8744 10.9506ZM52.207 42.1716L33 57.1377L13.793 42.1716L13.793 14.6116L33 8.06311L52.207 14.6116L52.207 42.1716ZM20.9731 39.0779L25.9682 34.0828C23.7059 30.4993 24.1377 25.6975 27.2637 22.5715C30.8924 18.9427 36.7705 18.9427 40.3992 22.5715C44.0279 26.2002 44.0279 32.0784 40.3992 35.707C37.2732 38.833 32.4779 39.2649 28.8879 37.0026L23.8928 41.9977C23.693 42.1975 23.3643 42.1975 23.1645 41.9977L20.9731 39.8063C20.8771 39.7094 20.8233 39.5785 20.8233 39.4421C20.8233 39.3057 20.8771 39.1748 20.9731 39.0779ZM30.1834 25.4912C32.2008 23.4739 35.4686 23.4739 37.4795 25.4912C39.4969 27.5085 39.4969 30.7764 37.4795 32.7874C35.4621 34.8047 32.1943 34.8047 30.1834 32.7874C28.1725 30.7699 28.166 27.5085 30.1834 25.4912Z" fill="#ED4C5C" fill-opacity="1.000000" fill-rule="evenodd"/>
	</g>
</svg>
